<?xml version="1.0" encoding="iso-8859-1"?>
<!-- Generator: Adobe Illustrator 19.0.0, SVG Export Plug-In . SVG Version: 6.00 Build 0)  -->
<!-- License: CC0. Made by SVG Repo: https://www.svgrepo.com/svg/97327/broccoli -->
<svg version="1.1" id="Layer_1" xmlns="http://www.w3.org/2000/svg"
  xmlns:xlink="http://www.w3.org/1999/xlink" x="0px" y="0px"
  viewBox="0 0 512 512" style="enable-background:new 0 0 512 512;" xml:space="preserve">
<path style="fill:#71A517;" d="M358.863,261.909c-3.605,9.007-7.793,20.107-12.178,32.966
	c-16.997,49.815-36.943,126.092-36.943,209.815H202.245c0-83.723-19.946-160-36.931-209.815
	c-4.386-12.872-8.573-23.972-12.178-32.979c10.989-1.437,21.011-5.909,29.213-12.55c11.088,14.42,26.314,25.484,43.893,31.443
	c1.747,11.509,3.481,24.046,5.092,37.488c0.458,3.704,0.892,7.483,1.313,11.323c1.338,11.906,11.36,20.937,23.34,20.937H256
	c11.98,0,22.015-9.031,23.34-20.937c0.421-3.841,0.855-7.619,1.301-11.323c1.611-13.442,3.345-25.979,5.117-37.488
	c17.567-5.959,32.793-17.022,43.881-31.443C337.852,255.988,347.875,260.472,358.863,261.909z"/>
<g>
	<path style="fill:#648E13;" d="M196.875,300.312c8.621,7.128,18.546,12.737,29.367,16.405c1.672,0.57,3.37,1.09,5.092,1.561
		c-1.611-13.442-3.345-25.979-5.092-37.488c-12.966-4.396-24.644-11.573-34.333-20.82l0,0c-1.698-1.62-3.335-3.304-4.908-5.047
		c-0.028-0.031-0.057-0.061-0.085-0.093c-0.71-0.788-1.401-1.592-2.084-2.405c-0.089-0.107-0.182-0.208-0.271-0.315
		c-0.754-0.907-1.493-1.827-2.213-2.763c-8.201,6.64-18.224,11.113-29.213,12.55c3.605,9.007,7.792,20.107,12.178,32.979
		c16.985,49.815,36.931,126.092,36.931,209.815h29.733C231.978,423.952,213.43,350.147,196.875,300.312z"/>
	<path style="fill:#648E13;" d="M358.863,261.909c-3.605,9.007-7.793,20.107-12.178,32.966c-6.244-2.242-11.992-5.513-17.047-9.601
		c-11.088,14.42-26.314,25.484-43.881,31.443c-1.685,0.57-3.395,1.09-5.117,1.561c1.611-13.442,3.345-25.979,5.117-37.488
		c17.567-5.959,32.793-17.022,43.881-31.443C337.852,255.988,347.875,260.472,358.863,261.909z"/>
</g>
<path style="fill:#9AD14B;" d="M358.863,268.104c-10.989-1.437-21.011-5.922-29.225-12.562
	c-11.088,14.42-26.314,25.484-43.881,31.443c-9.341,3.159-19.351,4.869-29.758,4.869c-10.407,0-20.417-1.71-29.758-4.869
	c-17.58-5.959-32.805-17.022-43.893-31.443c-8.201,6.64-18.224,11.113-29.213,12.55c-2.515,0.335-5.092,0.508-7.693,0.508
	c-0.31,0-0.607-0.025-0.917-0.025c-4.894,27.503-28.903,48.39-57.806,48.39c-32.434,0-58.735-26.289-58.735-58.735
	c0-10.345,2.688-20.07,7.396-28.519C14.148,216.505,0,192.966,0,166.108c0-41.341,33.511-74.853,74.852-74.853
	c3.531,0,7.012,0.273,10.419,0.743c5.835-35.531,36.671-62.65,73.849-62.65c15.337,0,29.597,4.633,41.477,12.55
	c9.676-20.441,30.476-34.589,54.597-34.589c24.443,0,45.479,14.544,54.981,35.432c12.116-8.424,26.822-13.392,42.704-13.392
	c37.178,0,68.014,27.119,73.837,62.65c3.407-0.471,6.888-0.743,10.431-0.743c41.341,0,74.853,33.511,74.853,74.853
	c0,26.859-14.148,50.397-35.395,63.604c4.708,8.449,7.396,18.174,7.396,28.519c0,32.446-26.289,58.735-58.722,58.735
	c-28.915,0-52.924-20.887-57.806-48.39c-0.31,0-0.619,0.025-0.929,0.025C363.943,268.599,361.378,268.426,358.863,268.104z"/>
<path style="fill:#90BC42;" d="M117.185,258.23c0-10.345,2.688-20.07,7.396-28.519c-21.234-13.206-35.382-36.745-35.382-63.604
	c0-41.341,33.511-74.853,74.852-74.853c3.531,0,7.012,0.273,10.419,0.743c67.902-101.401,121.296-60.567,125.322-64.98
	c-11.038-12.105-26.926-19.709-44.597-19.709c-24.121,0-44.921,14.148-54.597,34.589c-11.881-7.916-26.14-12.55-41.477-12.55
	c-37.178,0-68.014,27.119-73.849,62.65c-3.407-0.471-6.888-0.743-10.419-0.743C33.511,91.255,0,124.767,0,166.108
	c0,26.859,14.148,50.397,35.382,63.604c-4.708,8.449-7.396,18.174-7.396,28.519c0,32.446,26.301,58.735,58.735,58.735
	c17.85,0,33.826-7.973,44.593-20.544C122.513,286.152,117.185,272.818,117.185,258.23z"/>
</svg>